<svg xmlns="http://www.w3.org/2000/svg" width="144" height="48" viewBox="0 0 144 48">
  <g id="Group_3009" data-name="Group 3009" transform="translate(-1040 -56)">
    <g id="WKND-button-standard" transform="translate(1040 56)">
      <rect id="background" width="48" height="48" fill="#ebebeb"/>
      <g id="WKND-icon" transform="translate(14 14)">
        <rect id="background-2" data-name="background" width="20" height="20" fill="none"/>
        <g id="Dribbble-Light-Preview">
          <g id="icons">
            <path id="instagram-_167_" data-name="instagram-[#167]" d="M289.87,7279.123a5.513,5.513,0,0,0-5.788,5.774c-.046,1.005-.313,8.6.463,10.594a5.041,5.041,0,0,0,2.91,2.9,7.3,7.3,0,0,0,2.415.461c8.861.4,12.145.183,13.531-3.364a7.238,7.238,0,0,0,.462-2.41c.4-8.883-.066-10.809-1.61-12.352-1.225-1.222-2.666-2.053-12.382-1.606m.082,17.945a5.512,5.512,0,0,1-1.848-.341,3.254,3.254,0,0,1-1.889-1.883c-.591-1.514-.4-8.7-.342-9.866a4.247,4.247,0,0,1,1.087-2.985c1-.993,2.281-1.479,11.034-1.084a4.271,4.271,0,0,1,2.992,1.084c1,.993,1.489,2.288,1.087,11.008a5.475,5.475,0,0,1-.342,1.843c-.9,2.308-2.972,2.628-11.778,2.224m8.138-13.378a1.195,1.195,0,1,0,1.194-1.191,1.193,1.193,0,0,0-1.194,1.191m-9.227,5.3a5.11,5.11,0,1,0,5.11-5.1,5.1,5.1,0,0,0-5.11,5.1m1.793,0a3.316,3.316,0,1,1,3.316,3.31,3.313,3.313,0,0,1-3.316-3.31" transform="translate(-284 -7279)" fill="#202020" fill-rule="evenodd"/>
          </g>
        </g>
      </g>
    </g>
    <g id="WKND-button-standard-2" data-name="WKND-button-standard" transform="translate(1088 56)">
      <rect id="background-3" data-name="background" width="48" height="48" fill="#ebebeb"/>
      <g id="WKND-icon-2" data-name="WKND-icon" transform="translate(14 14)">
        <rect id="background-4" data-name="background" width="20" height="20" fill="none"/>
        <g id="Dribbble-Light-Preview-2" data-name="Dribbble-Light-Preview" transform="translate(5)">
          <g id="icons-2" data-name="icons">
            <path id="facebook-_176_" data-name="facebook-[#176]" d="M335.821,7259v-9h2.732l.446-4h-3.179v-1.948c0-1.03.026-2.052,1.466-2.052h1.458v-2.86a16.121,16.121,0,0,0-2.519-.14c-2.646,0-4.3,1.657-4.3,4.7v2.3H329v4h2.923v9Z" transform="translate(-329 -7239)" fill="#202020" fill-rule="evenodd"/>
          </g>
        </g>
      </g>
    </g>
    <g id="WKND-button-standard-3" data-name="WKND-button-standard" transform="translate(1136 56)">
      <rect id="background-5" data-name="background" width="48" height="48" fill="#ebebeb"/>
      <g id="WKND-icon-3" data-name="WKND-icon" transform="translate(14 14)">
        <rect id="background-6" data-name="background" width="20" height="20" fill="none"/>
        <g id="Dribbble-Light-Preview-3" data-name="Dribbble-Light-Preview" transform="translate(0 2)">
          <g id="icons-3" data-name="icons">
            <path id="twitter-_154_" data-name="twitter-[#154]" d="M10.29,7377a11.5,11.5,0,0,0,11.675-11.495c0-.175,0-.35-.012-.522A8.273,8.273,0,0,0,24,7362.892a8.27,8.27,0,0,1-2.356.636,4.069,4.069,0,0,0,1.8-2.235,8.3,8.3,0,0,1-2.606.981,4.153,4.153,0,0,0-5.806-.175,4.005,4.005,0,0,0-1.187,3.86,11.717,11.717,0,0,1-8.457-4.221,4,4,0,0,0,1.271,5.392,4.121,4.121,0,0,1-1.863-.5v.051a4.058,4.058,0,0,0,3.292,3.959,4.142,4.142,0,0,1-1.852.069,4.1,4.1,0,0,0,3.833,2.806,8.314,8.314,0,0,1-5.1,1.733,8.5,8.5,0,0,1-.977-.058A11.752,11.752,0,0,0,10.29,7377" transform="translate(-4 -7361)" fill="#202020" fill-rule="evenodd"/>
          </g>
        </g>
      </g>
    </g>
  </g>
</svg>
